# File created by Blade
# Date/Time:  Fri Jan 16 15:45:56 2015
#---------------------------------------------------------
:version 1.10
:name HOM
:units
  mass 1.0
  length 1.000000
  angle deg
:documentation
     Acclaim Skeleton File
:root
   axis xyz
   order TX TY TZ RX RY RZ
   position 0.000000 0.000000 0.000000
   orientation 0 0 0
:bonedata
   begin
      id 1
      name Spine_dum
      direction 0.000000 1.000000 0.000000
      length 7.170412
      axis 0.0 0.0 0.0 xyz
   end
   begin
      id 2
      name LeftUpLeg_dum
      direction 1.000000 0.000000 0.000000
      length 4.318350
      axis 0.0 0.0 0.0 xyz
   end
   begin
      id 3
      name RightUpLeg_dum
      direction -1.000000 0.000000 0.000000
      length 4.318350
      axis 0.0 0.0 0.0 xyz
   end
   begin
      id 4
      name Spine
      direction 0.000000 1.000000 0.000000
      length 0.000000
      axis 0.0 0.0 0.0 xyz
      dof rx ry rz
   end
   begin
      id 5
      name Spine_dum1
      direction 0.000000 1.000000 0.000000
      length 14.276153
      axis 0.0 0.0 0.0 xyz
   end
   begin
      id 6
      name Spine_dum2
      direction 0.000000 1.000000 0.000000
      length 10.718243
      axis 0.0 0.0 0.0 xyz
   end
   begin
      id 7
      name Spine_dum3
      direction 0.000000 1.000000 0.000000
      length 10.718243
      axis 0.0 0.0 0.0 xyz
   end
   begin
      id 8
      name Head
      direction 0.000000 1.000000 0.000000
      length 4.527550
      axis 0.0 0.0 0.0 xyz
      dof rx ry rz
   end
   begin
      id 9
      name LeftShoulder
      direction 1.000000 0.000000 0.000000
      length 7.058872
      axis 0.0 0.0 -90.0 xyz
      dof rx ry rz
   end
   begin
      id 10
      name LeftArm
      direction 1.000000 0.000000 0.000000
      length 10.955525
      axis 0.0 0.0 -90.0 xyz
      dof rx ry rz
   end
   begin
      id 11
      name LeftForeArm
      direction 1.000000 0.000000 0.000000
      length 8.193716
      axis 0.0 0.0 -90.0 xyz
      dof ry rz rx
   end
   begin
      id 12
      name LeftHand
      direction 0.000000 0.000000 0.000000
      length 0.000000
      axis 0.0 0.0 -90.0 xyz
      dof rx ry rz
   end
   begin
      id 13
      name LeftHand_dum1
      direction 0.000000 0.000000 0.000000
      length 0.000000
      axis 0.0 0.0 -90.0 xyz
   end
   begin
      id 14
      name LeftHand_dum2
      direction 1.000000 0.000000 0.000000
      length 3.937000
      axis 0.0 0.0 -90.0 xyz
   end
   begin
      id 15
      name LeftHandThumb1
      direction 0.000000 0.000000 1.000000
      length 3.937000
      axis 0.0 0.0 -90.0 xyz
      dof rx rz ry
   end
   begin
      id 16
      name RightShoulder
      direction -1.000000 0.000000 0.000000
      length 7.058872
      axis 0.0 0.0 90.0 xyz
      dof rx ry rz
   end
   begin
      id 17
      name RightArm
      direction -1.000000 0.000000 0.000000
      length 10.955525
      axis 0.0 0.0 90.0 xyz
      dof rx ry rz
   end
   begin
      id 18
      name RightForeArm
      direction -1.000000 0.000000 0.000000
      length 8.193716
      axis 0.0 0.0 90.0 xyz
      dof ry rz rx
   end
   begin
      id 19
      name RightHand
      direction 0.000000 0.000000 0.000000
      length 0.000000
      axis 0.0 0.0 90.0 xyz
      dof rx ry rz
   end
   begin
      id 20
      name RightHand_dum1
      direction 0.000000 0.000000 0.000000
      length 0.000000
      axis 0.0 0.0 90.0 xyz
   end
   begin
      id 21
      name RightHand_dum2
      direction -1.000000 0.000000 0.000000
      length 3.937000
      axis 0.0 0.0 90.0 xyz
   end
   begin
      id 22
      name RightHandThumb1
      direction 0.000000 0.000000 1.000000
      length 3.937000
      axis 0.0 0.0 90.0 xyz
      dof rx rz ry
   end
   begin
      id 23
      name LeftUpLeg
      direction 0.000000 -1.000000 0.000000
      length 17.323638
      axis 0.0 0.0 0.0 xyz
      dof rx ry rz
   end
   begin
      id 24
      name LeftLeg
      direction 0.000000 -1.000000 0.000000
      length 16.270368
      axis 0.0 0.0 0.0 xyz
      dof rx ry rz
   end
   begin
      id 25
      name LeftFoot
      direction 0.000000 -0.258819 0.965926
      length 4.922846
      axis 15.0 0.0 0.0 xyz
      dof rx ry rz
   end
   begin
      id 26
      name LeftToeBase
      direction 0.000000 0.000000 1.000000
      length 2.952750
      axis 0.0 0.0 0.0 xyz
      dof rx ry rz
   end
   begin
      id 27
      name RightUpLeg
      direction 0.000000 -1.000000 0.000000
      length 17.323638
      axis 0.0 0.0 0.0 xyz
      dof rx ry rz
   end
   begin
      id 28
      name RightLeg
      direction 0.000000 -1.000000 0.000000
      length 16.270368
      axis 0.0 0.0 0.0 xyz
      dof rx ry rz
   end
   begin
      id 29
      name RightFoot
      direction 0.000000 -0.258819 0.965926
      length 4.922846
      axis 15.0 0.0 0.0 xyz
      dof rx ry rz
   end
   begin
      id 30
      name RightToeBase
      direction 0.000000 0.000000 1.000000
      length 2.952750
      axis 0.0 0.0 0.0 xyz
      dof rx ry rz
   end
:hierarchy
   begin
      root Spine_dum LeftUpLeg_dum RightUpLeg_dum
      Spine_dum Spine
      LeftUpLeg_dum LeftUpLeg
      RightUpLeg_dum RightUpLeg
      Spine Spine_dum1 Spine_dum2 Spine_dum3
      Spine_dum1 Head
      Spine_dum2 LeftShoulder
      Spine_dum3 RightShoulder
      LeftShoulder LeftArm
      LeftArm LeftForeArm
      LeftForeArm LeftHand
      LeftHand LeftHand_dum1 LeftHand_dum2
      LeftHand_dum1 LeftHandThumb1
      RightShoulder RightArm
      RightArm RightForeArm
      RightForeArm RightHand
      RightHand RightHand_dum1 RightHand_dum2
      RightHand_dum1 RightHandThumb1
      LeftUpLeg LeftLeg
      LeftLeg LeftFoot
      LeftFoot LeftToeBase
      RightUpLeg RightLeg
      RightLeg RightFoot
      RightFoot RightToeBase
   end

# File created by Blade
# Date/Time:  Fri Jan 16 15:45:48 2015
# Frame Rate: 120.000 fps
#------------------------------------------------------
:FULLY-SPECIFIED
:DEGREES
1515
root -5.500212 35.311224 -10.244708 -0.891853 1.093019 -4.000627
Spine -1.605042 -4.536627 1.404133
Head -8.203902 -9.300920 0.652714
LeftShoulder -22.465970 11.456984 -16.984610
LeftArm 23.040624 16.695875 -65.613639
LeftForeArm 12.075361 0.000000 15.043065
LeftHand 2.759259 0.000000 -9.495934
LeftHandThumb1 -26.253704 0.000000 33.147579
RightShoulder -10.802079 21.799997 -47.714685
RightArm 17.787090 28.786900 -11.820840
RightForeArm -2.489046 -0.000000 40.424594
RightHand -3.656928 -0.000000 -21.708839
RightHandThumb1 -24.326973 -0.000000 -32.862282
LeftUpLeg 8.603411 11.353742 5.404407
LeftLeg -8.528232 -0.000000 0.000000
LeftFoot -13.301025 23.155012 -10.207095
LeftToeBase 21.706127 -0.000000 -0.000000
RightUpLeg 7.880699 -9.470237 0.580028
RightLeg -4.273324 -0.000000 0.000000
RightFoot -5.719325 -26.896906 6.793891
RightToeBase 12.531792 -0.000000 -0.000000
1516
root -5.501087 35.312762 -10.241423 -0.957139 0.997327 -4.004490
Spine -1.609867 -4.621228 1.412593
Head -7.993282 -9.237972 0.480109
LeftShoulder -22.498204 11.505098 -17.038253
LeftArm 23.007099 16.709596 -65.551347
LeftForeArm 11.995317 0.000000 15.128221
LeftHand 2.748734 0.000000 -9.460457
LeftHandThumb1 -26.253704 0.000000 33.147579
RightShoulder -10.771090 21.862119 -48.028636
RightArm 17.294462 27.635240 -11.709668
RightForeArm -2.212269 -0.000000 42.638613
RightHand -3.507439 -0.000000 -20.190903
RightHandThumb1 -24.326973 -0.000000 -32.862282
LeftUpLeg 8.683998 11.439124 5.429728
LeftLeg -8.503580 -0.000000 0.000000
LeftFoot -13.331816 23.148317 -10.251571
LeftToeBase 21.709739 -0.000000 -0.000000
RightUpLeg 7.908087 -9.415639 0.571242
RightLeg -4.202222 -0.000000 0.000000
RightFoot -5.739732 -26.834891 6.796359
RightToeBase 12.508271 -0.000000 -0.000000
1517
root -5.501935 35.313979 -10.237396 -1.019771 0.888679 -4.018058
Spine -1.647306 -4.671976 1.442536
Head -7.732294 -9.184989 0.314040
LeftShoulder -22.508983 11.608685 -17.099950
LeftArm 23.021520 16.704722 -65.481728
LeftForeArm 11.914089 -0.000000 15.172573
LeftHand 2.739654 -0.000000 -9.514969
LeftHandThumb1 -26.253704 0.000000 33.147579
RightShoulder -10.638508 21.623981 -48.193497
RightArm 16.728646 26.702530 -11.845915
RightForeArm -1.964072 -0.000000 44.848521
RightHand -3.136126 -0.000000 -19.095377
RightHandThumb1 -24.326973 -0.000000 -32.862282
LeftUpLeg 8.773358 11.508613 5.463580
LeftLeg -8.489070 -0.000000 0.000000
LeftFoot -13.354680 23.167308 -10.254353
LeftToeBase 21.689872 -0.000000 -0.000000
RightUpLeg 7.940029 -9.315403 0.577551
RightLeg -4.148955 -0.000000 0.000000
RightFoot -5.754616 -26.818768 6.815461
RightToeBase 12.443939 -0.000000 -0.000000
1518
root -5.504874 35.315670 -10.237639 -1.056698 0.820785 -4.020909
Spine -1.697828 -4.776556 1.436053
Head -7.475968 -9.001858 0.190048
LeftShoulder -22.544320 11.633593 -17.135302
LeftArm 22.980003 16.705403 -65.424356
LeftForeArm 11.874440 0.000000 15.220516
LeftHand 2.749288 -0.000000 -9.606359
LeftHandThumb1 -26.253704 0.000000 33.147579
RightShoulder -10.486342 21.394595 -48.343151
RightArm 16.141792 25.697699 -11.978998
RightForeArm -1.482598 -0.000000 47.094512
RightHand -2.458952 -0.000000 -17.993255
RightHandThumb1 -24.326973 -0.000000 -32.862282
LeftUpLeg 8.815993 11.547559 5.480696
LeftLeg -8.470101 -0.000000 0.000000
LeftFoot -13.375037 23.180586 -10.296988
LeftToeBase 21.708781 -0.000000 -0.000000
RightUpLeg 7.939941 -9.278006 0.577010
RightLeg -4.088692 -0.000000 0.000000
RightFoot -5.777588 -26.784242 6.831260
RightToeBase 12.515456 -0.000000 -0.000000
1519
root -5.508382 35.316691 -10.238487 -1.097196 0.763951 -4.019487
Spine -1.752270 -4.908256 1.422767
Head -7.270078 -8.950769 0.050711
LeftShoulder -22.581871 11.664277 -17.167297
LeftArm 22.933976 16.682922 -65.390208
LeftForeArm 11.829611 -0.000000 15.257286
LeftHand 2.744195 -0.000000 -9.601078
LeftHandThumb1 -26.253704 0.000000 33.147579
RightShoulder -10.396828 21.099795 -48.459044
RightArm 15.750428 24.907337 -12.010814
RightForeArm -1.379732 -0.000000 49.374955
RightHand -2.040696 -0.000000 -16.500174
RightHandThumb1 -24.326973 -0.000000 -32.862282
LeftUpLeg 8.861675 11.565574 5.494051
LeftLeg -8.454023 -0.000000 0.000000
LeftFoot -13.378781 23.201495 -10.315782
LeftToeBase 21.657393 -0.000000 -0.000000
RightUpLeg 7.945000 -9.230825 0.575490
RightLeg -4.029999 -0.000000 0.000000
RightFoot -5.811014 -26.776061 6.834994
RightToeBase 12.466387 -0.000000 -0.000000
1520
root -5.512389 35.319305 -10.240225 -1.132615 0.710148 -4.024843
Spine -1.816383 -5.028341 1.446494
Head -7.045170 -8.939354 -0.151872
LeftShoulder -22.579841 11.687718 -17.240009
LeftArm 22.864346 16.638425 -65.324159
LeftForeArm 11.747679 0.000000 15.290686
LeftHand 2.775782 -0.000000 -9.646676
LeftHandThumb1 -26.253704 0.000000 33.147579
RightShoulder -10.411863 20.511880 -48.516314
RightArm 15.569255 24.401635 -12.018505
RightForeArm -1.140463 -0.000000 51.566792
RightHand -1.332385 0.000000 -15.067718
RightHandThumb1 -24.326973 -0.000000 -32.862282
LeftUpLeg 8.894921 11.612678 5.514711
LeftLeg -8.430286 -0.000000 0.000000
LeftFoot -13.403347 23.192605 -10.379326
LeftToeBase 21.691049 -0.000000 -0.000000
RightUpLeg 7.944763 -9.173709 0.582999
RightLeg -3.974682 -0.000000 0.000000
RightFoot -5.833919 -26.752858 6.888468
RightToeBase 12.491612 -0.000000 -0.000000
1521
root -5.516724 35.319972 -10.241324 -1.164332 0.659362 -4.033377
Spine -1.881202 -5.137024 1.428678
Head -6.839872 -8.919718 -0.234603
LeftShoulder -22.593468 11.718407 -17.263279
LeftArm 22.799969 16.581127 -65.308290
LeftForeArm 11.702791 -0.000000 15.332796
LeftHand 2.743474 -0.000000 -9.656134
LeftHandThumb1 -26.253704 0.000000 33.147579
RightShoulder -10.258774 19.969502 -48.464425
RightArm 15.137996 23.617223 -12.361142
RightForeArm -0.754647 -0.000000 53.822611
RightHand -0.761500 0.000000 -13.685601
RightHandThumb1 -24.326973 -0.000000 -32.862282
LeftUpLeg 8.937728 11.631305 5.537619
LeftLeg -8.430407 -0.000000 0.000000
LeftFoot -13.405382 23.217733 -10.366473
LeftToeBase 21.725421 -0.000000 -0.000000
RightUpLeg 7.944701 -9.134640 0.591389
RightLeg -3.921139 -0.000000 0.000000
RightFoot -5.864591 -26.713939 6.928761
RightToeBase 12.456108 -0.000000 -0.000000
1522
root -5.520778 35.320675 -10.242071 -1.212311 0.605376 -4.038385
Spine -1.912828 -5.245822 1.407773
Head -6.671526 -8.772543 -0.298008
LeftShoulder -22.597653 11.738453 -17.300374
LeftArm 22.728451 16.516446 -65.271129
LeftForeArm 11.646996 -0.000000 15.405344
LeftHand 2.721886 0.000000 -9.721088
LeftHandThumb1 -26.253704 0.000000 33.147579
RightShoulder -10.240933 19.629493 -48.470337
RightArm 14.936483 22.599472 -12.635552
RightForeArm -0.452043 -0.000000 56.077622
RightHand 0.298149 0.000000 -12.444575
RightHandThumb1 -24.326973 -0.000000 -32.862282
LeftUpLeg 8.994667 11.660762 5.559238
LeftLeg -8.422864 -0.000000 0.000000
LeftFoot -13.405438 23.229136 -10.396590
LeftToeBase 21.637889 -0.000000 -0.000000
RightUpLeg 7.966179 -9.076348 0.595256
RightLeg -3.878957 -0.000000 0.000000
RightFoot -5.879281 -26.706779 6.930811
RightToeBase 12.446084 -0.000000 -0.000000
1523
root -5.525548 35.320162 -10.242571 -1.252625 0.562938 -4.048857
Spine -1.952162 -5.396299 1.371075
Head -6.513601 -8.603513 -0.309129
LeftShoulder -22.667913 11.718899 -17.316746
LeftArm 22.652074 16.473926 -65.263391
LeftForeArm 11.600574 -0.000000 15.451983
LeftHand 2.724979 -0.000000 -9.698587
LeftHandThumb1 -26.253704 0.000000 33.147579
RightShoulder -10.092413 19.477121 -48.527264
RightArm 14.602236 21.345787 -12.881030
RightForeArm -0.127820 -0.000000 58.438423
RightHand 1.512965 -0.000000 -11.845981
RightHandThumb1 -24.326973 -0.000000 -32.862282
LeftUpLeg 9.048058 11.674592 5.586428
LeftLeg -8.429824 -0.000000 0.000000
LeftFoot -13.423216 23.247723 -10.397643
LeftToeBase 21.693294 -0.000000 -0.000000
RightUpLeg 7.985105 -9.020757 0.606140
RightLeg -3.840832 -0.000000 0.000000
RightFoot -5.902230 -26.691678 6.928425
RightToeBase 12.463222 -0.000000 -0.000000
1524
root -5.530831 35.320930 -10.245400 -1.282447 0.531290 -4.055499
Spine -1.984124 -5.546168 1.327921
Head -6.399709 -8.462395 -0.332023
LeftShoulder -22.723167 11.724267 -17.360214
LeftArm 22.595270 16.391817 -65.235609
LeftForeArm 11.596636 0.000000 15.528928
LeftHand 2.756602 -0.000000 -9.678461
LeftHandThumb1 -26.253704 0.000000 33.147579
RightShoulder -9.605248 18.436680 -48.255703
RightArm 13.602339 20.907271 -13.675463
RightForeArm 0.284048 -0.000000 61.066439
RightHand 2.216621 -0.000000 -10.294671
RightHandThumb1 -24.326973 -0.000000 -32.862282
LeftUpLeg 9.080576 11.687560 5.606184
LeftLeg -8.431958 -0.000000 0.000000
LeftFoot -13.415420 23.272205 -10.412345
LeftToeBase 21.667981 -0.000000 -0.000000
RightUpLeg 7.995028 -8.952130 0.620621
RightLeg -3.816006 -0.000000 0.000000
RightFoot -5.919748 -26.715229 6.943185
RightToeBase 12.490318 -0.000000 -0.000000
